<?xml version="1.0" encoding="UTF-8"?>
<!DOCTYPE svg PUBLIC "-//W3C//DTD SVG 1.1//EN" "http://www.w3.org/Graphics/SVG/1.1/DTD/svg11.dtd">
<!-- Creator: CorelDRAW 2021.5 -->
<svg xmlns="http://www.w3.org/2000/svg" xml:space="preserve" width="215.289mm" height="92.81mm" version="1.1" style="shape-rendering:geometricPrecision; text-rendering:geometricPrecision; image-rendering:optimizeQuality; fill-rule:evenodd; clip-rule:evenodd"
viewBox="0 0 21528.9 9281"
 xmlns:xlink="http://www.w3.org/1999/xlink"
 xmlns:xodm="http://www.corel.com/coreldraw/odm/2003">
 <defs>
  <style type="text/css">
   <![CDATA[
    .fil0 {fill:#3316A0;fill-rule:nonzero}
   ]]>
  </style>
 </defs>
 <g id="Layer_x0020_1">
  <metadata id="CorelCorpID_0Corel-Layer"/>
  <path class="fil0" d="M8570.86 4862.56c185.96,30.39 437.49,119.9 551.01,274.96 -61.06,9.73 -131.87,62.05 -212.41,156.97 -80.55,94.91 -147.14,199.56 -199.8,313.94 -52.65,114.38 -82.47,222.68 -89.47,324.89 -7.01,102.21 30.87,167.92 113.64,197.13 17.19,4.86 33.51,8.51 48.94,10.95 15.4,2.43 33.35,3.65 53.81,3.65 81.84,0 165.5,-23.12 250.99,-69.36 85.49,-46.24 166.6,-96.13 243.33,-149.67 76.75,-53.54 138.21,-104.65 184.41,-153.32 46.2,-48.67 70.93,-75.44 74.19,-80.31 48.04,9.73 72.02,40.15 71.93,91.26 -0.09,51.11 -19.52,110.73 -58.29,178.87 -38.76,68.14 -91.02,141.16 -156.75,219.03 -65.73,77.88 -141.04,149.67 -225.93,215.38 -311.57,241.21 -490.82,279.47 -859.56,137.83 -182.72,-70.18 -319.02,-158.2 -412.58,-254.65 -125.12,-128.98 -171.31,-268.91 -138.57,-419.8 -101.68,19.47 -205.57,49.89 -311.68,91.26 -106.1,41.37 -208.64,87.61 -307.61,138.72 -98.99,51.11 -190.25,103.43 -273.8,156.97 -83.56,53.54 -157.04,102.21 -220.44,146.02 -41.29,204.42 -62.26,403.98 -62.94,598.68 -0.67,194.69 26.65,357.74 81.95,489.15 -151.27,-38.93 -278.23,-91.26 -380.89,-156.97 -102.66,-65.7 -187.55,-135.06 -254.64,-208.07 -67.1,-73.01 -117.06,-143.59 -149.91,-211.73 -32.83,-68.14 -55.06,-124.12 -66.68,-167.92 -7.74,-29.2 -12.26,-91.26 -13.54,-186.17 -1.3,-94.91 0.28,-206.86 4.73,-335.85 4.45,-128.98 14.61,-266.48 30.45,-412.49 15.85,-146.03 41.27,-285.96 76.25,-419.81 34.99,-133.85 80.66,-253.1 137.03,-357.75 56.37,-104.64 126.48,-178.87 210.35,-222.67 267.2,-48.93 645.85,50.98 887.51,190.04 70.36,40.49 122.53,82.4 130.01,123.9 -84.47,24.33 -172.15,109.51 -263.01,255.53 -90.86,146.02 -168.8,323.67 -233.8,532.96 127.43,-68.14 269.81,-148.45 427.15,-240.92 157.35,-92.48 308.6,-188.62 453.79,-288.39 145.17,-99.78 269.15,-195.91 371.94,-288.39 102.78,-92.47 161.7,-170.35 176.75,-233.63 116.96,-9.7 186.03,-10.82 312.14,9.78zm-3250.75 -2543.29c653.97,0 1268.08,31.82 1842.32,95.47 574.25,63.65 1073.61,139.23 1498.12,226.74 424.51,87.53 762.66,176.36 1014.48,266.53 251.79,90.17 384.19,164.43 397.18,222.77 -661.55,-121.99 -1294.14,-209.51 -1897.77,-262.55 -603.64,-53.04 -1176.7,-79.56 -1719.2,-79.56 -914.09,0 -1729.55,63.65 -2446.39,190.95 -716.84,127.29 -1302.54,289.06 -1757.11,485.31 -454.56,196.25 -768.3,409.73 -941.23,640.46 -172.93,230.72 -181.9,446.86 -26.9,648.41 -423.06,-100.78 -748.92,-241.33 -977.56,-421.67 -228.65,-180.33 -331.29,-371.27 -307.92,-572.82 23.35,-201.56 190.83,-399.13 502.42,-592.73 311.58,-193.59 796.08,-354.04 1453.46,-481.34 579.2,-132.59 1151.24,-226.74 1716.13,-282.43 564.9,-55.69 1114.89,-83.54 1649.97,-83.54zm-448.75 6969.44c-156.07,0 -318.27,-76.91 -486.62,-230.72 -168.36,-153.82 -321.74,-363.32 -460.17,-628.52 -138.43,-265.21 -250.58,-580.79 -336.46,-946.76 -85.86,-365.98 -122.41,-758.47 -109.63,-1177.49 -4.37,-137.91 0.87,-295.7 15.7,-473.38 14.82,-177.68 37.71,-364.65 68.68,-560.9 30.96,-196.25 72.09,-393.82 123.41,-592.72 51.31,-198.9 108.62,-384.54 171.91,-556.92 63.3,-172.38 131.78,-327.52 205.46,-465.42 73.69,-137.91 153.94,-243.99 240.78,-318.24 58.11,-42.43 180.06,-63.65 365.85,-63.65 141.2,0 301.39,13.25 480.58,39.78 179.2,26.52 345.56,58.34 499.08,95.47 153.52,37.13 282.97,76.91 388.35,119.34 105.39,42.43 158.59,79.56 159.58,111.38 -457.8,328.85 -825.18,755.82 -1102.15,1280.91 -119.3,222.77 -224.51,480.02 -315.62,771.74 -91.12,291.72 -151.41,617.91 -180.9,978.58 -29.48,360.67 -20.63,758.48 26.54,1193.4 47.18,434.93 151.35,909.64 312.51,1424.12l-66.88 0zm13015.34 -165.13c-268.15,-132.35 -463.95,-264.39 -587.4,-396.15 -123.45,-131.75 -190.56,-260.06 -201.33,-384.9 -10.76,-124.85 23.93,-245.88 104.11,-363.08 80.18,-117.2 189.19,-230.57 327.03,-340.1 137.84,-109.53 293.59,-212.79 467.23,-309.78 173.66,-96.98 347.12,-187.77 520.4,-272.37 173.27,-84.58 337.65,-161.43 493.1,-230.56 155.46,-69.13 283.16,-129.6 383.12,-181.43 16.28,-61.1 29.67,-122.37 40.17,-183.83 10.52,-61.44 23.91,-122.72 40.19,-183.81 -73.82,49.29 -151.98,98.31 -234.47,147.07 -82.49,48.76 -168.45,92.13 -257.85,130.12 -89.41,37.98 -174.98,68.96 -256.74,92.93 -210.21,61.61 -421.44,49.49 -589.46,-107.54 -97.16,-90.81 -176.26,-205.37 -237.28,-343.64 -61.03,-138.28 -102.08,-290.86 -123.19,-457.74 -21.1,-166.87 -22.1,-328.38 -3,-484.51 19.1,-156.14 55.87,-297.73 110.28,-424.8 54.43,-127.06 128.85,-220.81 223.26,-281.26 91.4,-56.49 218,-79.78 379.79,-69.87 92.46,5.67 183.04,25.71 271.76,60.13 88.7,34.41 162.35,88.61 220.93,162.57 -82.36,44.62 -154.53,111.61 -216.52,200.95 -61.98,89.34 -114.11,187.57 -156.36,294.67 -42.24,107.12 -75.2,217.9 -98.85,332.36 -23.66,114.46 -33.33,220.46 -28.97,318.01 4.34,97.54 23.96,181.33 57.65,251.91 86.52,181.25 237.97,142.79 407.98,77.79 97.6,-37.31 190.74,-87.66 282.15,-144.15 91.4,-56.5 173.45,-114.6 246.13,-174.3 72.68,-59.72 124.09,-109.34 154.2,-148.89 30.05,-134.77 66.25,-257.77 108.64,-369.01 42.36,-111.25 86.51,-208.93 132.42,-293.05 45.91,-84.11 91.34,-151.72 136.26,-202.77 85.92,-97.65 157.23,-122.56 258.32,-124.58 88.71,-1.78 199.04,9.89 305.86,32.2 127.68,26.66 251.1,66.19 358.95,141.07 30.1,20.88 58.43,43.93 84.99,68.99 -55.01,0.76 -112.64,40.7 -172.87,119.8 -60.24,79.11 -119.83,185.15 -178.76,318.14 -58.94,133 -118.43,284.59 -178.47,454.77 -60.04,170.18 -118.76,344.59 -176.15,523.21 99.45,-35.3 204.69,-70.24 315.71,-104.83 111,-34.6 218.39,-68.38 322.11,-101.35 103.73,-32.96 194.52,-68.8 272.37,-107.49 77.85,-38.69 134.73,-77.64 170.62,-116.83 57.53,11.8 93.82,27.42 111.58,44.09 105.24,98.76 -121.58,196.74 -195.6,227.07 -92.3,37.81 -197.72,78.96 -316.27,123.44 -118.54,44.47 -245.87,92.56 -381.99,144.23 -136.13,51.69 -270.24,108.66 -402.34,170.95 -51.62,178.97 -100.22,354 -145.82,525.07 -45.6,171.06 -90.13,330.81 -133.61,479.25 -43.47,148.43 -84.32,281.5 -122.55,399.2 -38.22,117.7 -72.89,212.86 -103.99,285.47 -55.67,120.77 -119.26,240.04 -190.78,357.76 -71.51,117.74 -154.15,220.31 -247.92,307.69 -93.76,87.4 -203.62,156.22 -329.57,206.45 -125.96,50.23 -269.83,70.4 -431.62,60.48 -184.9,-11.34 -387.44,-63.08 -607.58,-155.22zm1195.74 -1963.4c-306.35,179.93 -552.05,339.76 -737.11,479.52 -185.04,139.76 -322.56,262.76 -412.54,369.02 -89.99,106.25 -141.86,196.21 -155.63,269.88 -13.75,73.67 -0.39,135.54 40.09,185.63 40.49,50.08 98.73,86.77 174.75,110.06 76.01,23.3 157.52,35.42 244.03,42.9 258.63,22.37 422.55,-87.4 569.5,-287.75 45.44,-61.94 87.36,-132.3 126.9,-209.78 73.75,-144.5 141.58,-309.04 203.5,-493.6 61.91,-184.56 116.16,-378.89 162.73,-583.02 -38.17,18.36 -75.65,37.79 -112.44,58.31 -36.79,20.51 -71.38,40.12 -103.78,58.83zm-5984.24 -3400.09c-50.75,12.89 -130.83,22.58 -240.25,29.06 -109.42,6.49 -232.64,5.54 -369.65,-2.84 -136.99,-8.39 -276.52,-26.92 -418.61,-55.6 -142.07,-28.69 -268.85,-68.88 -380.35,-120.56 -111.5,-51.69 -195.21,-116.8 -251.14,-195.33 -139.96,-196.51 37.54,-497.08 137.22,-690.14 94.27,-182.59 202.97,-356.41 326.06,-521.46 210.67,-282.48 452.52,-537.88 725.52,-766.15 273,-228.29 569.15,-430.33 888.46,-606.15 319.31,-175.82 647.85,-322.97 985.63,-441.46 343.51,-120.51 690.9,-212.92 1042.2,-277.27 351.31,-64.34 691.34,-98.96 1020.13,-103.87 328.79,-4.9 639.74,18.52 932.87,70.29 293.12,51.78 556.12,132.52 789,242.24 362.98,181.87 634.23,378.73 813.75,590.61 179.52,211.87 287.74,429.11 324.66,651.75 36.93,222.62 12.56,447.11 -73.08,673.48 -85.64,226.36 -208.43,447.35 -368.36,662.95 -159.93,215.62 -346.8,421.05 -560.59,616.29 -663.74,606.16 -1264.69,1013.73 -2072.49,1276.03 101.19,263.89 235.71,540.08 400.64,830.68 164.93,290.59 369.56,596.73 613.86,918.4 -11.46,4.01 -20.24,8.32 -26.36,12.91 -6.1,4.61 -14.89,8.92 -26.34,12.93 -143.13,50.21 -300.82,44.18 -473.07,-18.09 -172.26,-62.28 -344.24,-171.26 -515.97,-326.98 -171.72,-155.71 -338.82,-351.07 -501.29,-586.1 -162.48,-235.03 -310.82,-500.78 -445.06,-797.24 -184.75,-33.35 -350.56,-84.39 -497.44,-153.1 -146.88,-68.72 -259.36,-140.93 -337.41,-216.61 -78.05,-75.69 -121.24,-148.87 -129.56,-219.57 -8.31,-70.71 33.72,-124.72 126.09,-162.03 198.54,121.77 413.99,203.24 646.35,244.42 -109.55,-275.08 -200.63,-715.29 -241.08,-990.27 -26.78,-182 -46.21,-367.83 -58.28,-557.46 -12.08,-189.63 -15.89,-371.11 -11.44,-544.44 4.44,-173.34 20.08,-330.97 46.9,-472.9 26.83,-141.92 68.6,-257.19 125.35,-345.8 39.81,-48.33 116.97,-92.57 231.48,-132.74 125.95,-44.18 277.78,-80.27 455.52,-108.26 177.73,-28 347.33,-47 508.79,-57.01 161.48,-10.02 301.27,-11.21 419.41,-3.57 118.13,7.63 180.2,27.58 186.17,59.83 -227.98,217.41 -413.81,478.91 -557.48,784.53 -121.04,263.31 -205.34,588.58 -252.87,975.81 -47.55,387.23 0.73,840.22 144.81,1359.01 50.75,-12.9 97.39,-25.59 139.94,-38.05 42.54,-12.48 86.73,-26.74 132.53,-42.81 148.84,-52.21 289.44,-112.58 421.76,-181.09 132.33,-68.5 255.81,-141.27 370.46,-218.29 548.49,-368.53 1012.09,-969.43 1243.39,-1584.64 122.21,-325.08 166.68,-602.02 133.4,-830.84 -33.26,-228.82 -129.98,-414.52 -290.13,-557.12 -160.14,-142.59 -345.85,-250.45 -557.14,-323.56 -534.14,-184.85 -1055.75,-158.88 -1599.93,-28.38 -600.35,143.98 -1200.83,416.74 -1651.57,690.47 -325.28,197.54 -596,401.71 -812.14,612.51 -216.14,210.78 -386.15,421.35 -510.05,631.67 -123.89,210.33 -207.31,404.01 -250.27,581.04 -42.97,177.04 -50.01,331.66 -21.15,463.86 28.87,132.2 84.94,227.88 168.2,287.01zm-3187.2 3603.62c-138.84,-69.4 -245.41,-156.21 -320.37,-258.59 -97.99,-133.85 -158.87,-279.87 -182.62,-438.06 -23.74,-158.18 -17.85,-322.46 17.68,-492.81 35.55,-170.36 88.43,-330.97 158.69,-481.86 70.25,-150.88 146.08,-287.17 227.48,-408.85 81.4,-121.68 158.69,-211.73 231.87,-270.14 174.36,14.6 328.42,34.08 462.17,58.41 116.54,19.47 223.99,47.45 322.32,83.96 98.34,36.51 150.06,81.53 155.15,135.07 -84.17,34.07 -164.89,96.13 -242.18,186.17 -77.29,90.05 -148.27,191.04 -212.93,302.99 -64.67,111.94 -118.04,229.98 -160.16,354.09 -42.12,124.12 -70.9,238.5 -86.34,343.15 -15.45,104.64 -13.42,195.9 6.08,273.78 19.51,77.88 63.68,126.55 132.49,146.02 10.38,4.87 29.21,7.3 56.49,7.3 75.02,0 159.27,-31.63 252.74,-94.91 93.48,-63.27 191.53,-143.58 294.16,-240.93 102.63,-97.34 204.15,-203.21 304.53,-317.59 100.39,-114.38 187.29,-223.89 260.71,-328.54 73.41,-104.65 130.17,-197.12 170.26,-277.43 40.07,-80.32 54.62,-132.64 43.63,-156.97 47.73,0 94,7.29 138.78,21.89 34.42,9.74 68.16,25.56 101.24,47.46 33.09,21.91 50.25,52.33 51.48,91.26 -187.02,340.71 -385.49,642.48 -595.42,905.32 -84.96,116.81 -177.71,229.98 -278.26,339.49 -100.53,109.52 -203.17,206.86 -307.9,292.03 -306.74,249.52 -627.28,365.43 -1001.77,178.29zm806.09 -3540.36c115.93,0 248.37,36.51 397.3,109.51 148.94,73.02 268.09,175.23 357.49,306.65 -71.15,14.6 -126.33,48.67 -165.56,102.21 -39.23,53.54 -74.08,110.73 -104.55,171.57 -30.47,60.84 -55.02,120.46 -73.62,178.88 -18.63,58.4 -44.53,102.2 -77.7,131.41 -29.91,24.34 -68.74,36.5 -116.49,36.5 -54.56,0 -117.94,-9.73 -190.16,-29.2 -72.22,-19.47 -146.38,-46.24 -222.47,-80.31 -76.1,-34.07 -143.74,-70.57 -202.94,-109.51 -59.19,-38.94 -99.63,-77.88 -121.32,-116.82 -22,-48.67 -15.48,-111.95 19.57,-189.82 35.05,-77.88 80.41,-153.33 136.07,-226.33 65.43,-87.61 146.13,-177.66 242.09,-270.14 20.15,-9.73 60.92,-14.6 122.29,-14.6zm3147.14 1182.76c170.49,0 331.83,34.06 484.01,102.2 190.17,82.75 330.17,197.13 420.03,343.15 89.85,146.02 141.77,305.42 155.74,478.21 13.99,172.79 -11.16,348.01 -75.45,525.67 -64.3,177.65 -156.41,338.27 -276.33,481.85 -119.93,143.59 -263.66,261.63 -431.24,354.1 -385.17,212.56 -829.12,158.16 -1215.34,-18.25 -133.2,-60.84 -242.76,-128.99 -328.68,-204.42 -85.92,-75.45 -149.77,-153.33 -191.51,-233.63 -41.76,-80.32 -64.52,-153.33 -68.3,-219.03 -3.78,-65.71 8.1,-121.68 35.62,-167.93 27.51,-46.24 64.99,-74.22 112.43,-83.95 49.89,68.14 103.04,131.41 159.44,189.82 49.27,48.67 110.72,94.38 183.39,138.72 196.34,119.77 389.74,103.36 594.83,-32.86 107.89,-71.65 202.19,-156.97 280.81,-259.18 78.61,-102.21 139.86,-214.16 183.75,-335.84 43.89,-121.69 69.27,-236.06 76.11,-343.15 27.21,-425.22 -223.18,-527.06 -590.56,-317.59 -132.3,75.45 -269.26,165.49 -410.87,270.14 -141.62,104.64 -279.59,216.59 -413.92,335.84 -134.33,119.25 -247.85,222.68 -340.56,310.29 -73.23,272.57 -107.1,550 -101.59,832.3 5.51,282.31 29.97,543.92 73.38,784.85 43.42,240.94 101.98,449.01 175.71,624.23 73.73,175.22 142.22,292.04 205.44,350.45 -147.39,-24.34 -286.5,-55.98 -417.3,-94.92 -113.6,-34.07 -221.5,-76.65 -323.71,-127.76 -102.2,-51.11 -176.77,-118.03 -223.71,-200.78 -112.01,-199.56 -185.65,-425.88 -220.93,-678.99 -35.27,-253.09 -45.12,-511.06 -29.55,-773.89 15.57,-262.83 53.45,-520.8 113.66,-773.9 60.2,-253.1 129.63,-484.29 208.27,-693.58 78.62,-209.3 163.45,-384.52 254.47,-525.68 91.02,-141.14 176.82,-231.19 257.43,-270.13 36.74,-24.33 85.81,-36.5 147.18,-36.5 61.38,0 133.29,9.74 215.75,29.2 82.45,19.47 159.94,43.81 232.46,73.01 72.53,29.2 134.02,59.62 184.47,91.26 50.43,31.64 76.11,62.06 77.03,91.27 -130.06,92.47 -242.69,197.12 -337.89,313.94 -95.19,116.81 -176.52,240.92 -243.98,372.34 79.38,-77.88 168.92,-158.19 268.59,-240.93 99.69,-82.74 211.54,-158.18 335.56,-226.32 123.99,-68.15 253.52,-124.12 388.52,-167.93 135.01,-43.81 274.12,-65.7 417.34,-65.7z"/>
 </g>
</svg>
