<?xml version="1.0" standalone="no"?>
<!DOCTYPE svg PUBLIC "-//W3C//DTD SVG 20010904//EN"
 "http://www.w3.org/TR/2001/REC-SVG-20010904/DTD/svg10.dtd">
<svg version="1.0" xmlns="http://www.w3.org/2000/svg"
 width="315.000000pt" height="125.000000pt" viewBox="0 0 315.000000 125.000000"
 preserveAspectRatio="xMidYMid meet">

<g transform="translate(0.000000,125.000000) scale(0.100000,-0.100000)"
fill="#000000" stroke="none">
<path d="M305 1234 c-150 -21 -249 -65 -281 -126 -24 -46 -23 -126 2 -168 16
-28 27 -36 56 -38 44 -4 85 28 72 56 -5 9 -8 39 -9 66 0 41 4 52 26 68 26 19
172 48 184 37 3 -3 -4 -50 -15 -105 -33 -161 -80 -461 -80 -514 0 -56 15 -70
73 -70 63 0 74 20 92 165 9 72 32 215 51 318 19 103 34 193 34 199 0 8 44 9
151 5 140 -5 152 -4 170 14 24 24 24 41 0 70 -19 24 -20 24 -258 25 -131 1
-251 0 -268 -2z"/>
<path d="M2186 1229 c-65 -15 -155 -70 -203 -123 -85 -95 -128 -207 -144 -381
-11 -120 -21 -139 -83 -169 -43 -21 -52 -6 -26 45 27 52 37 143 21 192 -27 81
-122 113 -197 67 l-32 -21 -7 21 c-5 16 -15 20 -48 20 -24 0 -53 -7 -65 -16
-20 -14 -22 -23 -22 -122 l0 -108 -44 -43 c-80 -78 -93 -41 -55 151 12 59 19
114 16 122 -8 21 -99 22 -116 2 -6 -7 -18 -44 -27 -82 -10 -41 -25 -76 -37
-87 -32 -29 -41 -8 -28 68 10 58 10 70 -4 91 -36 55 -151 17 -213 -70 -18 -25
-35 -46 -37 -46 -2 0 3 25 12 56 19 76 14 86 -43 82 -36 -2 -51 -9 -66 -28
-48 -66 -65 -343 -24 -389 19 -21 69 -28 93 -13 7 4 26 47 42 94 28 84 71 171
91 183 6 4 10 -13 10 -43 0 -78 21 -97 109 -97 l71 0 0 -30 c0 -64 53 -115
119 -115 l29 0 -30 -87 c-56 -160 -48 -308 17 -333 128 -49 209 71 241 358 5
47 10 62 23 62 9 1 32 7 52 14 30 10 39 10 55 -1 37 -27 174 -3 198 36 12 18
24 12 34 -17 39 -112 203 -171 279 -101 34 32 41 53 67 198 l22 125 71 12 c39
6 95 25 123 40 216 117 212 414 -6 480 -52 15 -177 17 -238 3z m145 -99 c87
-24 124 -126 81 -223 -21 -47 -72 -90 -124 -102 -33 -8 -33 -12 -12 110 20
117 13 135 -49 135 -69 0 -82 -16 -101 -122 -24 -131 -22 -128 -60 -128 -40 0
-59 -19 -54 -57 2 -22 10 -30 36 -38 37 -11 37 -10 16 -125 -18 -98 -26 -115
-46 -107 -50 19 -74 206 -44 345 47 225 198 356 357 312z m-713 -431 c-4 -61
-40 -128 -78 -149 -19 -10 -20 -8 -20 79 l0 89 36 31 c50 44 68 29 62 -50z
m-243 -341 c-17 -178 -38 -265 -55 -238 -15 23 -12 78 9 165 35 144 56 178 46
73z"/>
<path d="M1195 1065 c-34 -33 -33 -77 3 -105 36 -29 117 -24 144 10 24 29 23
75 -2 100 -31 31 -113 28 -145 -5z"/>
<path d="M2667 862 c-47 -51 -74 -297 -42 -367 29 -59 102 -73 154 -29 18 14
31 20 31 13 0 -6 -45 -54 -99 -106 -115 -108 -151 -167 -151 -247 1 -76 41
-116 115 -116 105 0 176 100 230 323 14 55 28 104 32 107 5 4 50 35 100 69 95
63 118 94 96 130 -18 29 -47 23 -113 -23 -35 -25 -65 -44 -67 -42 -1 1 9 66
22 145 14 79 22 147 19 152 -3 5 -24 9 -48 9 -51 0 -69 -17 -86 -80 -25 -95
-87 -210 -113 -210 -12 0 -2 106 18 180 8 30 15 67 15 83 0 26 -2 27 -48 27
-35 0 -54 -5 -65 -18z m93 -623 c-24 -77 -54 -129 -75 -129 -19 0 -20 39 -1
84 14 33 85 120 93 113 2 -2 -6 -33 -17 -68z"/>
</g>
</svg>
