<?xml version="1.0" encoding="UTF-8"?>
<!DOCTYPE svg PUBLIC "-//W3C//DTD SVG 1.1//EN" "http://www.w3.org/Graphics/SVG/1.1/DTD/svg11.dtd">
<!-- Creator: CorelDRAW 2021.5 -->
<svg xmlns="http://www.w3.org/2000/svg" xml:space="preserve" width="215.289mm" height="92.8103mm" version="1.1" style="shape-rendering:geometricPrecision; text-rendering:geometricPrecision; image-rendering:optimizeQuality; fill-rule:evenodd; clip-rule:evenodd"
viewBox="0 0 21518.56 9276.59"
 xmlns:xlink="http://www.w3.org/1999/xlink"
 xmlns:xodm="http://www.corel.com/coreldraw/odm/2003">
 <defs>
  <style type="text/css">
   <![CDATA[
    .fil0 {fill:#FA9306;fill-rule:nonzero}
   ]]>
  </style>
 </defs>
 <g id="Layer_x0020_1">
  <metadata id="CorelCorpID_0Corel-Layer"/>
  <path class="fil0" d="M8571.89 4852.56c185.87,30.38 437.28,119.84 550.75,274.83 -61.03,9.73 -131.81,62.02 -212.31,156.89 -80.51,94.86 -147.07,199.46 -199.7,313.79 -52.62,114.33 -82.43,222.57 -89.43,324.73 -7.01,102.16 30.86,167.84 113.59,197.04 17.18,4.86 33.49,8.51 48.92,10.94 15.39,2.43 33.33,3.65 53.78,3.65 81.8,0 165.42,-23.11 250.87,-69.33 85.45,-46.22 166.52,-96.08 243.21,-149.6 76.71,-53.51 138.14,-104.6 184.32,-153.25 46.18,-48.65 70.9,-75.4 74.15,-80.27 48.02,9.73 71.99,40.13 71.9,91.22 -0.09,51.09 -19.51,110.68 -58.26,178.78 -38.74,68.11 -90.98,141.09 -156.68,218.93 -65.7,77.84 -140.97,149.6 -225.82,215.28 -311.42,241.09 -490.59,279.34 -859.15,137.76 -182.63,-70.15 -318.87,-158.12 -412.38,-254.53 -125.06,-128.92 -171.23,-268.78 -138.5,-419.6 -101.63,19.46 -205.47,49.87 -311.53,91.22 -106.05,41.35 -208.54,87.57 -307.46,138.65 -98.94,51.09 -190.16,103.38 -273.67,156.89 -83.52,53.51 -156.96,102.16 -220.33,145.95 -41.27,204.32 -62.23,403.79 -62.91,598.39 -0.67,194.6 26.64,357.57 81.91,488.92 -151.2,-38.91 -278.1,-91.22 -380.71,-156.89 -102.61,-65.67 -187.46,-135 -254.52,-207.97 -67.07,-72.98 -117,-143.52 -149.84,-211.63 -32.81,-68.11 -55.03,-124.06 -66.65,-167.84 -7.74,-29.19 -12.25,-91.22 -13.53,-186.08 -1.3,-94.86 0.28,-206.76 4.73,-335.69 4.45,-128.92 14.6,-266.35 30.44,-412.29 15.84,-145.96 41.25,-285.82 76.21,-419.61 34.97,-133.79 80.62,-252.98 136.96,-357.58 56.34,-104.59 126.42,-178.78 210.25,-222.56 267.07,-48.91 645.54,50.96 887.09,189.95 70.33,40.47 122.47,82.36 129.95,123.84 -84.43,24.32 -172.07,109.46 -262.88,255.41 -90.82,145.95 -168.72,323.52 -233.69,532.71 127.37,-68.11 269.68,-148.38 426.95,-240.8 157.27,-92.44 308.45,-188.53 453.57,-288.25 145.1,-99.73 269.02,-195.82 371.76,-288.25 102.73,-92.43 161.62,-170.27 176.67,-233.52 116.9,-9.7 185.94,-10.81 311.99,9.78zm-3249.2 -2542.07c653.66,0 1267.47,31.8 1841.44,95.42 573.98,63.62 1073.1,139.16 1497.4,226.63 424.31,87.49 762.3,176.28 1013.99,266.4 251.67,90.13 384.01,164.35 396.99,222.66 -661.23,-121.93 -1293.52,-209.41 -1896.86,-262.42 -603.35,-53.01 -1176.14,-79.52 -1718.38,-79.52 -913.65,0 -1728.72,63.62 -2445.22,190.86 -716.5,127.23 -1301.92,288.92 -1756.27,485.08 -454.34,196.16 -767.93,409.53 -940.78,640.15 -172.85,230.61 -181.81,446.65 -26.89,648.1 -422.86,-100.73 -748.56,-241.21 -977.09,-421.47 -228.54,-180.24 -331.13,-371.09 -307.77,-572.55 23.34,-201.46 190.74,-398.94 502.18,-592.45 311.43,-193.5 795.7,-353.87 1452.76,-481.11 578.92,-132.53 1150.69,-226.63 1715.31,-282.29 564.63,-55.66 1114.36,-83.5 1649.18,-83.5zm-448.54 6966.11c-156,0 -318.12,-76.87 -486.39,-230.61 -168.28,-153.75 -321.59,-363.15 -459.95,-628.22 -138.36,-265.08 -250.46,-580.51 -336.3,-946.31 -85.82,-365.8 -122.35,-758.11 -109.58,-1176.93 -4.37,-137.84 0.87,-295.56 15.69,-473.15 14.81,-177.6 37.69,-364.48 68.65,-560.63 30.95,-196.16 72.06,-393.63 123.35,-592.44 51.29,-198.8 108.57,-384.36 171.83,-556.65 63.27,-172.3 131.72,-327.36 205.36,-465.2 73.65,-137.84 153.87,-243.87 240.66,-318.09 58.08,-42.41 179.97,-63.62 365.68,-63.62 141.13,0 301.25,13.24 480.35,39.76 179.11,26.51 345.39,58.31 498.84,95.42 153.45,37.11 282.83,76.87 388.16,119.28 105.34,42.41 158.51,79.52 159.5,111.33 -457.58,328.69 -824.79,755.46 -1101.62,1280.3 -119.24,222.66 -224.4,479.79 -315.47,771.37 -91.08,291.58 -151.34,617.61 -180.81,978.11 -29.47,360.5 -20.62,758.12 26.53,1192.83 47.16,434.72 151.28,909.21 312.36,1423.44l-66.85 0zm13009.12 -165.05c-268.02,-132.29 -463.73,-264.26 -587.12,-395.96 -123.39,-131.69 -190.47,-259.94 -201.23,-384.72 -10.75,-124.79 23.92,-245.76 104.06,-362.91 80.14,-117.14 189.1,-230.46 326.87,-339.94 137.77,-109.48 293.45,-212.69 467.01,-309.63 173.58,-96.93 346.95,-187.68 520.15,-272.24 173.19,-84.54 337.49,-161.35 492.86,-230.45 155.39,-69.1 283.02,-129.54 382.94,-181.34 16.27,-61.07 29.66,-122.31 40.15,-183.74 10.51,-61.41 23.9,-122.66 40.17,-183.72 -73.78,49.27 -151.91,98.26 -234.36,147 -82.45,48.74 -168.37,92.09 -257.73,130.06 -89.37,37.96 -174.9,68.93 -256.62,92.89 -210.11,61.58 -421.24,49.47 -589.18,-107.49 -97.11,-90.77 -176.18,-205.27 -237.17,-343.48 -61,-138.21 -102.03,-290.72 -123.13,-457.52 -21.09,-166.79 -22.09,-328.22 -3,-484.28 19.09,-156.07 55.84,-297.59 110.23,-424.6 54.4,-127 128.79,-220.7 223.15,-281.13 91.36,-56.46 217.9,-79.74 379.61,-69.84 92.42,5.67 182.95,25.7 271.63,60.1 88.66,34.39 162.27,88.57 220.82,162.49 -82.32,44.6 -154.46,111.56 -216.42,200.85 -61.95,89.3 -114.06,187.48 -156.29,294.53 -42.22,107.07 -75.16,217.8 -98.8,332.2 -23.65,114.41 -33.31,220.35 -28.96,317.86 4.34,97.49 23.95,181.24 57.62,251.79 86.48,181.16 237.86,142.72 407.78,77.75 97.55,-37.29 190.65,-87.62 282.02,-144.08 91.36,-56.47 173.37,-114.55 246.01,-174.22 72.65,-59.69 124.03,-109.29 154.13,-148.82 30.04,-134.71 66.22,-257.65 108.59,-368.83 42.34,-111.2 86.47,-208.83 132.36,-292.91 45.89,-84.07 91.3,-151.65 136.19,-202.67 85.88,-97.6 157.15,-122.5 258.2,-124.52 88.67,-1.78 198.94,9.89 305.71,32.18 127.62,26.65 250.98,66.16 358.78,141 30.09,20.87 58.4,43.91 84.95,68.96 -54.98,0.76 -112.59,40.68 -172.79,119.74 -60.21,79.07 -119.77,185.06 -178.67,317.99 -58.91,132.94 -118.37,284.45 -178.38,454.55 -60.01,170.1 -118.7,344.43 -176.07,522.96 99.4,-35.28 204.59,-70.21 315.56,-104.78 110.95,-34.58 218.29,-68.35 321.96,-101.3 103.68,-32.94 194.43,-68.77 272.24,-107.44 77.81,-38.67 134.67,-77.6 170.54,-116.77 57.5,11.79 93.78,27.41 111.53,44.07 105.19,98.71 -121.52,196.65 -195.51,226.96 -92.26,37.79 -197.63,78.92 -316.12,123.38 -118.48,44.45 -245.75,92.52 -381.81,144.16 -136.06,51.67 -270.11,108.61 -402.15,170.87 -51.6,178.88 -100.17,353.83 -145.75,524.82 -45.58,170.98 -90.09,330.65 -133.55,479.02 -43.45,148.36 -84.28,281.37 -122.49,399.01 -38.2,117.64 -72.86,212.76 -103.94,285.33 -55.64,120.71 -119.2,239.93 -190.69,357.59 -71.48,117.68 -154.08,220.2 -247.8,307.54 -93.72,87.36 -203.52,156.15 -329.41,206.35 -125.9,50.21 -269.7,70.37 -431.41,60.45 -184.81,-11.33 -387.25,-63.05 -607.29,-155.15zm1195.17 -1962.46c-306.2,179.84 -551.79,339.6 -736.76,479.29 -184.95,139.69 -322.41,262.63 -412.34,368.84 -89.95,106.2 -141.79,196.12 -155.56,269.75 -13.74,73.63 -0.39,135.48 40.07,185.54 40.47,50.06 98.68,86.73 174.67,110.01 75.97,23.29 157.44,35.4 243.91,42.88 258.51,22.36 422.35,-87.36 569.23,-287.61 45.42,-61.91 87.32,-132.24 126.84,-209.68 73.71,-144.43 141.51,-308.89 203.4,-493.36 61.88,-184.47 116.1,-378.71 162.65,-582.74 -38.15,18.35 -75.61,37.77 -112.39,58.28 -36.77,20.5 -71.35,40.1 -103.73,58.8zm-5981.38 -3398.46c-50.73,12.88 -130.77,22.57 -240.14,29.05 -109.37,6.49 -232.53,5.54 -369.47,-2.84 -136.92,-8.39 -276.39,-26.91 -418.41,-55.57 -142,-28.68 -268.72,-68.85 -380.17,-120.5 -111.45,-51.67 -195.12,-116.74 -251.02,-195.24 -139.89,-196.42 37.52,-496.84 137.15,-689.81 94.22,-182.5 202.87,-356.24 325.9,-521.21 210.57,-282.34 452.3,-537.62 725.17,-765.78 272.87,-228.18 568.88,-430.12 888.04,-605.86 319.16,-175.74 647.54,-322.82 985.16,-441.25 343.35,-120.45 690.57,-212.82 1041.7,-277.14 351.14,-64.31 691.01,-98.91 1019.64,-103.82 328.63,-4.9 639.43,18.51 932.42,70.26 292.98,51.76 555.85,132.46 788.62,242.12 362.81,181.78 633.93,378.55 813.36,590.33 179.43,211.77 287.6,428.9 324.5,651.44 36.91,222.51 12.55,446.9 -73.05,673.16 -85.6,226.25 -208.33,447.14 -368.18,662.63 -159.85,215.52 -346.63,420.85 -560.32,616 -663.42,605.87 -1264.09,1013.25 -2071.5,1275.42 101.14,263.76 235.6,539.82 400.45,830.28 164.85,290.45 369.38,596.44 613.57,917.96 -11.45,4.01 -20.23,8.32 -26.35,12.9 -6.1,4.61 -14.88,8.92 -26.33,12.92 -143.06,50.19 -300.68,44.16 -472.84,-18.08 -172.18,-62.25 -344.08,-171.18 -515.72,-326.82 -171.64,-155.64 -338.66,-350.9 -501.05,-585.82 -162.4,-234.92 -310.67,-500.54 -444.85,-796.86 -184.66,-33.33 -350.39,-84.35 -497.2,-153.03 -146.81,-68.69 -259.24,-140.86 -337.25,-216.51 -78.01,-75.65 -121.18,-148.8 -129.5,-219.47 -8.31,-70.68 33.7,-124.66 126.03,-161.95 198.45,121.71 413.79,203.14 646.04,244.3 -109.5,-274.95 -200.53,-714.95 -240.96,-989.8 -26.77,-181.91 -46.19,-367.65 -58.25,-557.19 -12.07,-189.54 -15.88,-370.93 -11.43,-544.18 4.44,-173.26 20.07,-330.81 46.88,-472.67 26.82,-141.85 68.57,-257.07 125.29,-345.63 39.79,-48.31 116.91,-92.53 231.37,-132.68 125.89,-44.16 277.65,-80.23 455.3,-108.21 177.65,-27.99 347.16,-46.98 508.55,-56.98 161.4,-10.02 301.13,-11.2 419.21,-3.57 118.07,7.63 180.11,27.57 186.08,59.8 -227.87,217.31 -413.61,478.68 -557.21,784.15 -120.98,263.18 -205.24,588.3 -252.75,975.34 -47.53,387.04 0.73,839.82 144.74,1358.36 50.73,-12.89 97.34,-25.58 139.87,-38.03 42.52,-12.47 86.69,-26.73 132.47,-42.79 148.77,-52.19 289.3,-112.53 421.56,-181 132.27,-68.47 255.69,-141.2 370.28,-218.19 548.23,-368.35 1011.61,-968.97 1242.8,-1583.88 122.15,-324.92 166.6,-601.73 133.34,-830.44 -33.24,-228.71 -129.92,-414.32 -289.99,-556.85 -160.06,-142.52 -345.68,-250.33 -556.87,-323.41 -533.88,-184.76 -1055.25,-158.8 -1599.16,-28.37 -600.06,143.91 -1200.26,416.54 -1650.78,690.14 -325.12,197.45 -595.71,401.52 -811.75,612.22 -216.04,210.68 -385.97,421.15 -509.81,631.37 -123.83,210.23 -207.21,403.82 -250.15,580.76 -42.95,176.96 -49.99,331.5 -21.14,463.64 28.86,132.14 84.9,227.77 168.12,286.87zm-3185.68 3601.9c-138.77,-69.37 -245.29,-156.14 -320.22,-258.47 -97.94,-133.79 -158.79,-279.74 -182.53,-437.85 -23.73,-158.1 -17.84,-322.31 17.67,-492.57 35.53,-170.28 88.39,-330.81 158.61,-481.63 70.22,-150.81 146.01,-287.03 227.37,-408.65 81.36,-121.62 158.61,-211.63 231.76,-270.01 174.28,14.59 328.26,34.06 461.95,58.38 116.48,19.46 223.88,47.43 322.17,83.92 98.29,36.49 149.99,81.49 155.08,135.01 -84.13,34.05 -164.81,96.08 -242.06,186.08 -77.25,90.01 -148.2,190.95 -212.83,302.85 -64.64,111.89 -117.98,229.87 -160.08,353.92 -42.1,124.06 -70.87,238.39 -86.3,342.99 -15.44,104.59 -13.41,195.81 6.08,273.65 19.5,77.84 63.65,126.49 132.43,145.95 10.38,4.87 29.2,7.3 56.46,7.3 74.98,0 159.19,-31.61 252.62,-94.86 93.44,-63.24 191.44,-143.51 294.02,-240.81 102.58,-97.29 204.05,-203.11 304.38,-317.44 100.34,-114.33 187.2,-223.78 260.59,-328.38 73.37,-104.6 130.11,-197.03 170.18,-277.3 40.05,-80.28 54.59,-132.58 43.61,-156.89 47.71,0 93.96,7.29 138.71,21.88 34.4,9.74 68.13,25.55 101.19,47.44 33.07,21.9 50.23,52.3 51.46,91.22 -186.93,340.55 -385.31,642.17 -595.14,904.89 -84.92,116.75 -177.63,229.87 -278.13,339.33 -100.48,109.47 -203.07,206.76 -307.75,291.89 -306.59,249.4 -626.98,365.26 -1001.29,178.2zm805.7 -3538.67c115.87,0 248.25,36.49 397.11,109.46 148.87,72.99 267.96,175.15 357.32,306.5 -71.12,14.59 -126.27,48.65 -165.48,102.16 -39.21,53.51 -74.04,110.68 -104.5,171.49 -30.46,60.81 -54.99,120.4 -73.58,178.79 -18.62,58.37 -44.51,102.15 -77.66,131.35 -29.9,24.33 -68.71,36.48 -116.43,36.48 -54.53,0 -117.88,-9.73 -190.07,-29.19 -72.19,-19.46 -146.31,-46.22 -222.36,-80.27 -76.06,-34.05 -143.67,-70.54 -202.84,-109.46 -59.16,-38.92 -99.58,-77.84 -121.26,-116.76 -21.99,-48.65 -15.47,-111.9 19.56,-189.73 35.03,-77.84 80.37,-153.26 136,-226.22 65.4,-87.57 146.06,-177.58 241.97,-270.01 20.14,-9.73 60.89,-14.59 122.23,-14.59zm3145.64 1182.19c170.41,0 331.67,34.04 483.78,102.15 190.08,82.71 330.01,197.04 419.83,342.99 89.81,145.95 141.7,305.27 155.67,477.98 13.98,172.71 -11.15,347.84 -75.41,525.42 -64.27,177.57 -156.34,338.11 -276.2,481.62 -119.87,143.52 -263.53,261.5 -431.03,353.93 -384.99,212.46 -828.72,158.08 -1214.76,-18.24 -133.14,-60.81 -242.64,-128.93 -328.52,-204.32 -85.88,-75.41 -149.7,-153.26 -191.42,-233.52 -41.74,-80.28 -64.49,-153.26 -68.27,-218.93 -3.78,-65.68 8.1,-121.62 35.6,-167.85 27.5,-46.22 64.96,-74.18 112.38,-83.91 49.87,68.11 102.99,131.35 159.36,189.73 49.25,48.65 110.67,94.33 183.3,138.65 196.25,119.71 389.55,103.31 594.55,-32.84 107.84,-71.62 202.09,-156.89 280.68,-259.06 78.57,-102.16 139.79,-214.06 183.66,-335.68 43.87,-121.63 69.24,-235.95 76.07,-342.99 27.2,-425.02 -223.07,-526.81 -590.28,-317.44 -132.24,75.41 -269.13,165.41 -410.67,270.01 -141.55,104.59 -279.46,216.49 -413.72,335.68 -134.27,119.19 -247.73,222.57 -340.4,310.14 -73.19,272.44 -107.05,549.74 -101.54,831.9 5.51,282.17 29.96,543.66 73.34,784.47 43.4,240.82 101.93,448.8 175.63,623.93 73.69,175.14 142.15,291.9 205.34,350.28 -147.32,-24.33 -286.36,-55.95 -417.1,-94.87 -113.55,-34.05 -221.39,-76.61 -323.56,-127.7 -102.15,-51.09 -176.69,-117.97 -223.6,-200.68 -111.96,-199.46 -185.56,-425.68 -220.82,-678.67 -35.25,-252.97 -45.1,-510.82 -29.54,-773.52 15.56,-262.7 53.42,-520.55 113.61,-773.53 60.17,-252.98 129.57,-484.06 208.17,-693.25 78.58,-209.2 163.37,-384.34 254.35,-525.43 90.98,-141.07 176.74,-231.08 257.31,-270 36.72,-24.32 85.77,-36.48 147.11,-36.48 61.35,0 133.23,9.74 215.65,29.19 82.41,19.46 159.86,43.79 232.35,72.98 72.5,29.19 133.96,59.59 184.38,91.22 50.41,31.62 76.07,62.03 76.99,91.23 -130,92.43 -242.57,197.03 -337.73,313.79 -95.14,116.75 -176.44,240.8 -243.86,372.16 79.34,-77.84 168.84,-158.11 268.46,-240.81 99.64,-82.7 211.44,-158.1 335.4,-226.21 123.93,-68.12 253.4,-124.06 388.33,-167.85 134.95,-43.79 273.99,-65.67 417.14,-65.67z"/>
 </g>
</svg>
